# xmcd
#
# Track frame offsets: 
#        150
#        17580
#        31957
#        47331
#        68774
#        85387
#        95084
#        109941
#        123676
#        144666
#        161509
#        175241
#        190581
#        222543
#        235183
#        250848
#        262606
#        273348
#        290888
#
# Disc length: 4169 seconds
#
# Revision: 0
# Processed by: cddbd v1.5.2PL0 Copyright (c) Steve Scherf et al.
# Submitted via: ExactAudioCopy v0.95b4
#
DISCID=12104713
DTITLE=Various Artist - Billboard 1970
DYEAR=2000
DGENRE=Other
TTITLE0=The Beatles - Let It Be
TTITLE1=Bread - Make It With You
TTITLE2=Cat Stevens - Wild World
TTITLE3=The Kinks - Lola
TTITLE4=The Carpenters - Close to You
TTITLE5=C.C. Revival - Travelin' Band
TTITLE6=Santana - Black Magic Woman
TTITLE7=Shocking Blue - Venus
TTITLE8=George Harrison - My Sweet Lord
TTITLE9=Diana Ross - I'm Still Waiting
TTITLE10=The Jackson Five - I Want You Back
TTITLE11=John Lennon - Love
TTITLE12=Eric Clapton - Layla
TTITLE13=Black Sabbath - Paranoid
TTITLE14=Deep Purple - Black Night
TTITLE15=Elvis Presley - The Wonder of You
TTITLE16=Led Zeppelin - Immigrant Song
TTITLE17=The Guess Who - American Woman
TTITLE18=Simon and Garfunkel - Bridge over Troubled Water
EXTD=
EXTT0=
EXTT1=
EXTT2=
EXTT3=
EXTT4=
EXTT5=
EXTT6=
EXTT7=
EXTT8=
EXTT9=
EXTT10=
EXTT11=
EXTT12=
EXTT13=
EXTT14=
EXTT15=
EXTT16=
EXTT17=
EXTT18=
PLAYORDER=
